HIERARCHY
ROOT Hips
{
  OFFSET 0 0 0
  CHANNELS 6 Xposition Yposition Zposition Zrotation Yrotation Xrotation
  JOINT LeftThigh
  {
    OFFSET 8.409438 0 -5.917753
    CHANNELS 3 Zrotation Yrotation Xrotation
    JOINT LeftLeg
    {
      OFFSET 0 0 -42.358652
      CHANNELS 3 Zrotation Yrotation Xrotation
      JOINT LeftFoot
      {
        OFFSET 0 0 -39.357303
        CHANNELS 3 Zrotation Yrotation Xrotation
      }
    }
  }
  JOINT RightThigh
  {
    OFFSET -8.409438 0 -5.917753
    CHANNELS 3 Zrotation Yrotation Xrotation
    JOINT RightLeg
    {
      OFFSET 0 0 -42.358652
      CHANNELS 3 Zrotation Yrotation Xrotation
      JOINT RightFoot
      {
        OFFSET 0 0 -39.357303
        CHANNELS 3 Zrotation Yrotation Xrotation
      }
    }
  }
  JOINT SpineLow
  {
    OFFSET 0 0 4.719101
    CHANNELS 3 Zrotation Yrotation Xrotation
    JOINT SpineMid
    {
      OFFSET 0 0 12.899191
      CHANNELS 3 Zrotation Yrotation Xrotation
      JOINT Chest
      {
        OFFSET 0 0 12.899191
        CHANNELS 3 Zrotation Yrotation Xrotation
        JOINT LeftShoulder
        {
          OFFSET 7.550562 1.41573 9.438202
          CHANNELS 3 Zrotation Yrotation Xrotation
          JOINT LeftArm
          {
            OFFSET 9.155056 0 4.247191
            CHANNELS 3 Zrotation Yrotation Xrotation
            JOINT LeftForearm
            {
              OFFSET 0 0 25.771955
              CHANNELS 3 Zrotation Yrotation Xrotation
              JOINT LeftHand
              {
                OFFSET 0 0 25.197169
                CHANNELS 3 Zrotation Yrotation Xrotation
              }
            }
          }
        }
        JOINT RightShoulder
        {
          OFFSET -7.550562 1.41573 9.438202
          CHANNELS 3 Zrotation Yrotation Xrotation
          JOINT RightArm
          {
            OFFSET -9.155056 0 4.247191
            CHANNELS 3 Zrotation Yrotation Xrotation
            JOINT RightForearm
            {
              OFFSET 0 0 -25.771955
              CHANNELS 3 Zrotation Yrotation Xrotation
              JOINT RightHand
              {
                OFFSET 0 0 -25.197169
                CHANNELS 3 Zrotation Yrotation Xrotation
              }
            }
          }
        }
        JOINT Neck
        {
          OFFSET 0 0 15.101124
          CHANNELS 3 Zrotation Yrotation Xrotation
          JOINT Head
          {
            OFFSET 0 0 11.325843
            CHANNELS 3 Zrotation Yrotation Xrotation
            End Site
            {
              OFFSET 0 0 14.157303
            }
          }
        }
      }
    }
  }
}
MOTION
Frames: 8
Frame Time: 0.0
0.0  89.887642  0.0  -0.389212  -19.757518  -98.606184  9.565496  -17.046888  6.437399  -4.340395  0.960647  16.340205  1.88581  1.610714  1.705357  -14.387381  8.638987  -10.563986  -11.217699  10.704384  18.527871  10.097482  3.609691  -0.644057  -0.39696  -0.265045  1.202908  -1.09796  -0.704503  3.292392  -1.09796  -0.704503  3.292393  -20.613958  16.438856  -4.134603  144.578964  39.930896  -162.589464  -50.942619  6.95367  62.412423  77.483832  0.671849  -13.215814  2.854292  -5.857521  19.811032  122.28151  42.589689  60.442573  18.142717  12.456344  -3.316785  106.639335  -0.330592  5.04501  -3.168717  1.558282  -0.095362  -2.376148  1.169243  -0.063438  
0.0  89.887642  0.0  -0.481204  -21.592423  -98.54  10.269452  -17.267291  6.798991  -4.05438  0.928401  16.168451  2.217687  1.698161  1.905995  -13.365452  8.513605  -10.552724  -11.24676  10.234461  18.166121  10.525475  3.350995  -0.526599  -0.440278  -0.280065  1.20365  -1.217097  -0.743374  3.295159  -1.217097  -0.743374  3.295159  -21.77339  15.716565  -5.006302  143.337017  38.132429  -162.390203  -57.908985  11.031237  64.045392  76.277739  0.055409  -15.24277  3.632829  -6.583483  19.479049  125.016025  42.255878  61.955612  18.776852  12.401285  -2.451976  107.133646  -0.984546  5.559817  -1.877158  1.620262  0.066349  -1.407951  1.215006  0.054736  
0.0  89.887642  0.0  -0.55128  -23.848894  -98.489634  11.164817  -17.438233  7.29207  -3.432511  0.855257  16.166386  2.513772  1.730493  1.994924  -12.298941  8.500936  -10.641073  -11.145294  9.462009  17.91717  10.921817  3.066932  -0.363505  -0.430094  -0.287085  1.200949  -1.189589  -0.763113  3.287795  -1.189589  -0.763113  3.287795  -23.007136  15.226894  -5.756034  142.327798  36.646296  -162.196145  -63.868664  15.24833  65.472135  75.558088  -0.536861  -16.463337  4.262845  -7.346819  19.102975  126.893639  42.056585  62.756254  19.449282  12.558254  -1.738117  107.653852  -1.588698  6.103055  -0.553104  1.629888  0.270574  -0.415522  1.222172  0.204392  
0.0  89.887642  0.0  -0.59322  -26.544039  -98.388794  12.243466  -17.53172  7.827839  -2.822472  0.691358  16.022178  3.050633  1.847635  2.239914  -11.004963  8.470373  -10.889149  -11.164532  8.493978  17.723874  11.30056  2.798818  -0.060047  -0.396712  -0.286994  1.14537  -1.097728  -0.765458  3.135494  -1.097728  -0.765458  3.135494  -23.8221  14.869203  -5.85423  141.834266  35.545518  -161.452716  -67.986601  19.289299  66.501168  75.286286  -1.060731  -16.70888  4.824467  -8.12154  18.953578  128.874918  41.866741  63.395028  19.912345  12.530198  -1.281021  107.946613  -1.940038  6.779305  0.931922  1.605658  0.648428  0.697193  1.205237  0.483841  
0.0  89.887642  0.0  -0.578474  -29.62107  -98.288831  13.373841  -17.514103  8.448183  -1.806238  0.566835  15.962852  3.468619  1.912409  2.373718  -9.65731  8.403851  -11.360738  -11.227141  7.628137  17.638318  11.608871  2.64306  0.225941  -0.336979  -0.294105  1.037405  -0.933559  -0.789266  2.839803  -0.933559  -0.789266  2.839803  -24.380105  14.664718  -5.577368  142.229859  34.620844  -160.082577  -69.872157  22.916091  67.857551  75.404936  -0.734144  -16.250007  5.276769  -8.808133  19.086388  130.896804  41.580111  63.97448  20.159226  12.518667  -1.145533  107.963849  -2.026614  7.419759  2.560703  1.587729  1.2012  1.917291  1.19586  0.894207  
0.0  89.887642  0.0  0.127066  -34.07151  -99.010655  15.24974  -17.144087  9.635605  -0.407854  0.460256  16.027102  3.939043  1.992012  2.51086  -6.129619  8.538507  -10.973795  -12.389648  7.438671  17.256611  13.340832  2.684251  0.534739  -0.06442  -0.227078  0.972222  -0.185185  -0.61799  2.658147  -0.185185  -0.61799  2.658147  -25.02741  14.444921  -5.179802  143.583676  33.623347  -158.574861  -69.1089  26.023006  69.864596  74.968875  -0.186107  -15.746399  5.472848  -9.509871  19.353187  132.840039  41.271191  64.382619  20.458165  12.592524  -1.227821  107.632657  -1.909413  7.943896  4.253433  1.483532  1.833985  3.185478  1.125489  1.365164  
0.0  89.887642  0.0  0.445682  -37.725406  -99.365632  16.082585  -16.92542  10.635278  1.139683  0.458983  16.100626  4.431651  2.100041  2.640731  -5.467149  8.215087  -11.478555  -11.907556  7.398907  17.343446  13.978455  2.36136  0.606332  0.068315  -0.201175  0.881555  0.179376  -0.552297  2.409123  0.179376  -0.552297  2.409123  -25.699691  14.136571  -4.935616  145.610364  32.482105  -157.125856  -61.620211  24.137838  69.5118  68.429135  -4.529822  -15.388742  5.510057  -10.11833  19.506636  134.617237  40.776716  64.354094  19.965679  12.44854  -1.604222  107.651714  -1.982296  8.596804  5.977106  1.302246  2.383187  4.47764  1.000123  1.774776  
0.0  89.887642  0.0  0.954493  -41.584884  -99.845711  16.967527  -16.504684  11.628752  2.608729  0.422429  16.136226  5.045351  2.244057  2.860614  -5.075476  7.88713  -12.137223  -10.803879  7.171101  17.527601  14.472001  2.08168  0.716871  0.267832  -0.144966  0.778217  0.72735  -0.404814  2.125568  0.72735  -0.404814  2.125568  -26.68846  13.761592  -4.62784  147.605793  31.264355  -156.042487  -59.240591  19.11823  69.470106  62.032646  -2.02726  -6.760687  5.208613  -10.826353  19.576395  135.935046  39.645507  63.474646  16.342379  11.411923  -2.922137  109.258806  -3.409488  9.583934  7.549929  0.97772  2.893229  5.657832  0.769193  2.158179  
